<svg xmlns="http://www.w3.org/2000/svg" viewBox="0 0 1448 1086">
<path d="M 533.0 245.0 C 554.1 286.0 575.7 326.7 596.2 368.0 C 611.7 398.9 626.9 430.0 641.0 461.6 C 653.1 489.1 664.4 517.0 674.9 545.1 C 686.5 576.6 697.3 608.4 707.2 640.4 C 717.8 674.6 727.4 709.0 736.5 743.6 C 745.0 775.9 752.2 808.5 760.0 841.0 C 821.5 840.6 883.1 840.7 944.6 839.7 C 978.3 839.1 1012.1 838.6 1045.7 836.3 C 1060.2 835.3 1074.7 833.2 1088.8 829.9 C 1099.1 827.5 1109.0 823.7 1118.6 819.2 C 1128.2 814.7 1137.5 809.4 1145.9 803.0 C 1154.5 796.4 1162.5 788.9 1169.3 780.6 C 1176.2 772.2 1182.0 763.0 1186.7 753.2 C 1191.3 743.5 1194.8 733.1 1197.1 722.6 C 1199.7 710.7 1201.3 698.5 1201.4 686.3 C 1201.7 670.6 1200.6 654.8 1198.2 639.2 C 1195.0 617.7 1190.1 596.4 1184.9 575.2 C 1179.3 552.2 1172.1 529.7 1165.8 506.9 C 1161.1 489.6 1155.9 472.3 1152.0 454.8 C 1149.0 441.2 1146.6 427.5 1145.3 413.7 C 1144.1 401.3 1143.7 388.7 1144.4 376.2 C 1145.2 364.1 1146.9 352.1 1149.6 340.3 C 1152.4 328.6 1156.1 317.2 1161.0 306.2 C 1165.8 295.3 1171.8 284.9 1178.4 275.0 C 1185.2 264.5 1193.5 255.0 1201.0 245.0 C 1098.7 245.0 996.3 245.0 894.0 245.0 C 895.2 260.8 895.9 276.6 897.6 292.3 C 899.1 306.6 900.9 320.9 903.7 335.0 C 906.3 348.2 909.7 361.2 914.0 374.0 C 918.8 388.5 924.4 402.9 931.1 416.7 C 939.4 433.8 948.6 450.5 958.8 466.5 C 973.4 489.4 989.5 511.3 1005.5 533.3 C 1024.1 558.7 1043.8 583.3 1062.4 608.7 C 1074.7 625.5 1087.1 642.3 1098.0 660.1 C 1104.0 669.9 1108.7 680.6 1112.7 691.4 C 1115.4 698.7 1117.0 706.4 1117.9 714.1 C 1118.5 719.9 1118.3 725.7 1117.3 731.4 C 1116.3 737.1 1114.3 742.7 1112.0 747.9 C 1109.5 753.4 1106.4 758.7 1102.8 763.5 C 1099.2 768.1 1095.0 772.3 1090.4 775.8 C 1085.5 779.6 1080.1 782.7 1074.4 785.3 C 1068.6 787.9 1062.5 790.0 1056.2 791.4 C 1049.7 792.7 1043.0 793.4 1036.3 793.4 C 1028.7 793.3 1021.0 792.6 1013.6 791.2 C 1005.9 789.7 998.3 787.7 991.1 784.8 C 984.0 782.0 977.1 778.4 970.7 774.1 C 963.4 769.2 956.5 763.7 950.2 757.6 C 942.5 750.2 935.3 742.3 928.8 733.8 C 920.2 722.5 912.3 710.6 905.1 698.4 C 895.6 682.5 886.8 666.2 878.8 649.5 C 870.3 632.0 862.3 614.2 855.4 596.0 C 847.6 575.2 840.6 554.0 834.4 532.7 C 826.2 504.2 818.8 475.5 812.3 446.6 C 804.7 413.2 798.1 379.6 792.0 345.8 C 786.0 312.3 781.3 278.6 776.0 245.0 C 695.0 245.0 614.0 245.0 533.0 245.0 Z" fill="currentColor"/>
<path d="M 207.0 246.0 C 222.2 266.0 237.9 285.6 252.6 305.9 C 268.4 327.9 283.8 350.1 298.4 373.0 C 313.4 396.7 327.8 420.9 341.3 445.5 C 355.0 470.7 367.9 496.3 379.9 522.3 C 391.8 548.1 402.8 574.4 412.8 601.0 C 422.8 627.3 431.8 654.1 439.8 681.1 C 447.8 707.7 454.6 734.6 460.9 761.6 C 467.0 787.6 471.6 813.9 477.0 840.0 C 537.0 840.0 597.0 840.0 657.0 840.0 C 652.6 818.9 648.8 797.8 643.9 776.8 C 638.0 751.1 631.7 725.6 624.6 700.2 C 616.9 672.9 608.7 645.8 599.6 618.9 C 591.1 593.5 581.7 568.2 571.7 543.3 C 561.9 518.9 551.3 494.7 540.2 470.9 C 528.5 446.0 516.1 421.3 503.2 397.0 C 489.6 371.5 475.4 346.4 460.9 321.4 C 446.0 295.7 430.3 270.5 415.0 245.0 C 345.7 245.3 276.3 245.7 207.0 246.0 Z" fill="currentColor"/>
</svg>